<?xml version="1.0" standalone="no"?>
<!DOCTYPE svg PUBLIC "-//W3C//DTD SVG 20010904//EN"
 "http://www.w3.org/TR/2001/REC-SVG-20010904/DTD/svg10.dtd">
<svg version="1.0" xmlns="http://www.w3.org/2000/svg"
 width="1019.000000pt" height="1090.000000pt" viewBox="0 0 1019.000000 1090.000000"
 preserveAspectRatio="xMidYMid meet">
<metadata>
Created by potrace 1.16, written by Peter Selinger 2001-2019
</metadata>
<g transform="translate(0.000000,1090.000000) scale(0.100000,-0.100000)"
fill="#000000" stroke="none">
<path d="M4230 10889 c-539 -43 -736 -73 -1008 -155 -374 -113 -653 -272
-1137 -648 -213 -165 -473 -415 -646 -622 -84 -101 -343 -461 -409 -569 -136
-222 -292 -592 -380 -896 -88 -308 -123 -538 -123 -804 0 -289 37 -477 172
-885 92 -278 164 -455 287 -708 122 -252 162 -324 347 -622 194 -311 182 -279
182 -490 -1 -260 -43 -449 -186 -841 -81 -223 -93 -248 -196 -404 -218 -329
-474 -584 -711 -707 -48 -25 -162 -76 -254 -113 -92 -37 -165 -71 -162 -76 3
-5 29 -9 58 -9 40 0 79 10 151 41 391 162 666 368 868 650 91 127 223 394 306
621 76 208 103 252 185 298 95 55 114 39 123 -110 9 -153 -33 -307 -124 -458
-48 -80 -66 -142 -41 -142 8 0 53 39 99 87 64 67 94 108 126 174 97 198 143
405 143 647 0 210 -29 369 -101 549 -28 72 -270 544 -541 1055 -60 113 -130
257 -154 320 -165 416 -238 974 -181 1378 70 497 123 689 278 999 126 253 385
657 573 896 137 173 374 391 733 671 398 311 721 441 1270 508 414 51 578 55
1013 26 393 -27 663 -99 1230 -327 299 -120 348 -144 522 -254 481 -303 883
-741 1183 -1286 140 -254 333 -754 404 -1043 80 -330 88 -607 25 -905 -13 -66
-42 -209 -64 -319 -47 -238 -62 -290 -195 -696 -158 -479 -165 -517 -165 -850
0 -302 -21 -493 -81 -735 -59 -237 -151 -381 -398 -620 -85 -82 -301 -294
-480 -471 -404 -397 -497 -472 -656 -530 -60 -21 -131 -67 -145 -94 -21 -40
-11 -73 35 -118 47 -46 62 -88 51 -144 -7 -38 -155 -264 -220 -337 -147 -165
-363 -301 -566 -356 -98 -26 -302 -31 -434 -10 -467 73 -931 263 -1339 549
-591 414 -950 839 -1191 1411 -26 61 -55 121 -65 135 l-19 24 -12 -25 c-10
-21 -4 -45 40 -169 28 -80 73 -190 100 -245 46 -95 261 -431 393 -615 94 -131
288 -318 457 -440 200 -144 629 -431 780 -520 448 -266 900 -422 1225 -424
110 -1 138 3 182 20 115 48 349 245 474 402 78 97 129 186 198 345 103 239
242 458 441 696 115 138 400 427 808 820 144 139 282 278 306 309 91 120 142
238 173 404 26 136 25 551 -1 743 -34 258 -29 279 264 1150 193 571 244 862
244 1375 0 390 -32 642 -120 946 -142 494 -445 961 -930 1434 -209 205 -387
350 -576 474 -108 70 -640 334 -813 403 -467 187 -1084 275 -1625 232z"/>
<path d="M8773 10154 c-16 -21 -30 -27 -78 -33 l-58 -6 -141 -205 -142 -205
52 -1050 53 -1050 0 -1867 1 -1867 -372 -222 c-205 -122 -378 -227 -385 -233
-9 -8 79 -52 370 -182 l382 -171 3 -1324 2 -1324 207 -207 208 -208 340 0 341
0 44 45 44 45 76 0 c41 0 85 3 96 6 12 3 101 93 198 200 l176 194 0 89 c0 49
-49 1093 -110 2320 l-110 2231 0 2301 0 2302 -142 223 -143 223 -447 0 -446 1
-19 -26z m999 -249 l128 -200 0 -4630 0 -4630 -193 -193 -192 -192 -300 0
-300 0 -193 193 -192 192 -2 1333 -3 1333 -338 152 c-317 141 -338 152 -319
167 10 8 164 101 340 205 l321 190 1 2946 0 2945 151 197 151 197 406 -2 406
-3 128 -200z"/>
<path d="M9150 9921 c-66 -21 -153 -65 -197 -98 -81 -62 -65 -202 31 -258 24
-14 54 -25 68 -25 29 0 86 -35 143 -90 56 -53 74 -60 154 -60 38 0 73 -5 76
-10 22 -36 -48 -90 -115 -90 -57 0 -98 27 -161 106 -28 35 -60 71 -72 79 -46
32 -154 6 -185 -45 -19 -31 -26 -119 -13 -152 24 -63 212 -146 353 -155 65 -5
90 -2 165 22 48 15 101 36 117 48 61 43 82 146 49 246 -22 70 -63 103 -167
137 -71 22 -97 37 -153 85 -38 33 -83 66 -100 74 -91 43 22 77 115 35 37 -17
46 -28 72 -85 32 -71 44 -80 105 -79 76 2 135 53 135 119 0 52 -44 108 -98
126 -20 6 -62 29 -95 50 -52 34 -68 39 -116 38 -31 0 -81 -8 -111 -18z"/>
<path d="M9120 8996 c-108 -30 -211 -91 -236 -137 -20 -40 -17 -77 11 -147 31
-76 31 -87 0 -154 -28 -60 -31 -104 -11 -151 14 -35 78 -97 100 -97 7 0 36
-25 64 -55 63 -67 87 -74 153 -46 32 14 86 25 145 30 105 9 131 21 173 82 22
32 23 39 15 119 -13 147 -11 171 19 227 38 73 38 140 -1 179 -58 60 -153 135
-187 149 -42 18 -181 18 -245 1z m156 -205 c60 -37 78 -118 48 -216 -10 -33
-13 -67 -9 -101 8 -64 -16 -101 -58 -90 -28 7 -57 50 -57 86 0 26 -14 52 -57
109 -27 36 -33 53 -33 93 0 110 83 170 166 119z"/>
<path d="M8975 8067 c-92 -44 -117 -132 -75 -265 27 -85 25 -168 -5 -283 -35
-134 -34 -172 9 -215 32 -32 39 -34 97 -34 35 0 98 9 139 20 92 24 124 25 204
4 142 -38 236 21 236 148 0 65 -16 111 -51 144 -27 26 -37 29 -92 29 -75 0
-110 -23 -187 -121 -42 -53 -55 -64 -80 -64 -42 0 -67 39 -50 79 6 16 23 40
37 53 58 54 88 160 80 285 -12 194 -122 287 -262 220z"/>
<path d="M9197 7136 c-31 -13 -69 -31 -83 -41 -14 -9 -55 -28 -91 -41 -97 -37
-121 -51 -138 -84 -19 -36 -19 -100 -1 -144 28 -66 114 -54 177 24 82 103 108
119 129 80 17 -31 2 -66 -51 -119 -56 -57 -68 -82 -79 -169 -10 -75 -26 -96
-96 -128 -28 -12 -58 -34 -67 -48 -20 -29 -22 -97 -5 -114 20 -20 89 -13 178
18 102 36 130 37 245 5 119 -33 165 -33 205 1 58 50 75 118 46 188 -29 69 -94
84 -181 41 -74 -36 -105 -32 -131 16 -20 39 -10 71 44 137 38 47 46 65 50 109
3 33 11 58 22 68 17 15 21 14 56 -19 50 -47 91 -49 128 -5 46 54 30 121 -43
178 -95 76 -204 92 -314 47z"/>
<path d="M8991 6225 c-118 -37 -152 -142 -86 -265 84 -155 80 -138 80 -322 l0
-167 27 -28 c23 -22 36 -27 78 -27 35 0 58 6 78 20 47 35 57 69 55 175 -2 80
1 99 15 112 9 8 64 29 121 46 91 28 109 38 150 79 107 107 89 272 -36 333 -34
17 -69 23 -156 26 -62 3 -137 12 -167 19 -66 17 -102 17 -159 -1z m407 -231
c31 -9 28 -40 -5 -58 -16 -7 -53 -19 -84 -25 -31 -7 -71 -23 -90 -37 -43 -32
-98 -47 -116 -32 -26 21 17 97 69 124 53 27 172 42 226 28z"/>
<path d="M9160 5295 c-114 -33 -225 -101 -246 -151 -38 -92 15 -200 110 -225
68 -18 99 -34 151 -81 84 -74 92 -78 173 -78 53 0 74 -4 78 -14 9 -23 -12 -52
-50 -70 -78 -37 -148 -9 -226 89 -28 36 -61 72 -73 80 -49 34 -158 5 -187 -51
-22 -40 -20 -147 3 -172 54 -60 256 -132 368 -132 66 0 208 41 253 73 61 43
82 146 49 246 -22 70 -63 103 -168 138 -72 23 -98 38 -153 86 -37 32 -82 65
-100 73 -22 10 -32 21 -30 32 5 26 86 28 143 3 40 -18 49 -28 75 -86 32 -71
44 -80 105 -79 148 3 184 175 50 238 -22 10 -70 36 -106 57 -55 33 -73 39
-120 38 -30 0 -74 -7 -99 -14z"/>
<path d="M9200 4361 c-25 -11 -65 -30 -90 -44 -25 -14 -72 -36 -105 -48 -113
-41 -142 -79 -132 -171 8 -65 29 -88 79 -88 50 0 77 19 138 96 56 71 93 85
104 40 9 -35 -1 -54 -60 -119 -54 -58 -74 -103 -74 -165 0 -55 -25 -89 -90
-122 -71 -36 -90 -61 -90 -117 0 -72 45 -80 180 -33 104 36 153 37 264 5 104
-30 141 -31 184 -5 85 52 98 177 23 244 -29 27 -85 23 -155 -10 -54 -25 -62
-26 -85 -13 -14 8 -32 26 -40 41 -14 24 -14 30 1 62 10 19 34 53 54 75 26 29
37 52 41 83 11 105 26 116 84 63 46 -41 77 -44 116 -11 24 21 28 32 28 76 0
49 -2 54 -47 95 -69 62 -110 79 -203 82 -61 2 -91 -2 -125 -16z"/>
<path d="M9120 3448 c-136 -73 -148 -263 -23 -351 29 -21 56 -30 99 -34 51 -4
66 -1 114 24 44 23 60 39 82 82 35 66 36 119 4 188 -33 70 -84 104 -168 110
-53 4 -70 1 -108 -19z"/>
<path d="M8943 2874 c-38 -19 -73 -84 -73 -137 0 -20 13 -78 29 -129 45 -142
45 -143 12 -257 -57 -199 -52 -237 40 -284 100 -50 204 -30 243 48 19 38 19
42 3 122 -20 93 -14 118 29 129 46 12 74 -46 74 -152 0 -85 11 -109 67 -145
43 -27 55 -30 110 -27 49 3 68 9 89 28 41 39 54 74 54 142 0 55 -4 69 -35 114
-25 35 -55 62 -100 89 l-65 38 50 17 c62 21 97 52 110 99 23 84 3 169 -52 216
-80 69 -140 89 -246 79 -46 -4 -89 -1 -135 10 -86 20 -163 20 -204 0z m405
-210 c81 -36 69 -55 -43 -72 -108 -16 -114 -16 -127 13 -9 19 -7 29 6 50 32
49 69 51 164 9z"/>
<path d="M9171 1911 c-31 -32 -94 -84 -141 -114 -101 -67 -122 -94 -127 -161
-3 -41 1 -60 22 -96 57 -100 59 -107 31 -154 -14 -23 -32 -48 -40 -56 -19 -15
-21 -78 -4 -115 18 -39 95 -87 148 -93 39 -3 51 0 78 23 38 31 49 79 32 131
-17 50 -15 93 4 112 14 14 21 14 70 -3 l54 -18 4 -58 c5 -69 35 -114 102 -153
58 -34 96 -41 141 -26 66 22 94 106 61 184 -8 20 -38 52 -71 77 -56 42 -75 65
-75 91 0 8 19 43 42 79 34 51 43 75 46 121 6 78 -19 149 -66 188 -63 52 -165
100 -212 100 -39 0 -48 -5 -99 -59z"/>
<path d="M9246 1029 c-22 -5 -73 -27 -115 -49 -42 -22 -103 -50 -136 -62 -33
-12 -75 -36 -92 -54 -28 -27 -33 -39 -33 -78 0 -56 22 -114 47 -123 10 -4 24
-13 31 -20 36 -35 117 -3 170 69 21 29 49 62 61 72 19 17 21 17 21 2 0 -27
-25 -68 -65 -106 -47 -44 -74 -102 -75 -158 0 -64 -22 -96 -85 -128 -71 -34
-95 -65 -95 -118 1 -36 5 -44 36 -64 48 -30 95 -28 206 9 104 35 123 34 288
-11 86 -24 86 -24 125 -4 55 27 85 75 85 136 0 65 -21 103 -78 139 -56 36 -85
36 -147 3 -59 -31 -99 -29 -103 5 -6 38 5 63 53 121 39 47 45 61 45 101 0 25
6 54 14 64 14 19 15 19 33 2 11 -9 24 -17 30 -17 6 0 16 -7 23 -15 7 -9 29
-15 50 -15 52 0 80 35 80 98 0 42 -4 50 -49 92 -97 91 -225 134 -325 109z"/>
<path d="M2877 6310 c-152 -15 -237 -32 -237 -46 0 -23 21 -27 77 -14 46 11
56 11 68 -1 8 -8 23 -70 35 -139 44 -265 87 -388 185 -535 82 -124 240 -266
397 -358 211 -123 417 -174 662 -164 264 11 427 84 706 316 80 67 147 121 150
121 3 -1 32 -44 64 -97 33 -53 61 -92 64 -85 7 22 -37 136 -74 192 -157 237
-639 553 -1049 689 -159 52 -288 83 -450 107 -117 17 -485 26 -598 14z m460
-456 c24 -12 67 -61 147 -168 130 -173 244 -299 331 -364 33 -25 52 -42 43
-39 -9 3 -36 11 -60 17 -296 76 -494 207 -583 384 -35 69 -33 119 4 157 34 33
66 37 118 13z"/>
<path d="M7485 6073 c-243 -53 -405 -97 -502 -134 -223 -87 -442 -252 -606
-456 -64 -79 -168 -235 -162 -241 2 -2 21 10 42 27 21 17 40 31 43 31 3 0 57
-38 120 -85 63 -47 142 -98 175 -114 270 -132 631 -64 852 161 82 84 97 103
137 187 47 98 61 201 47 346 -6 61 -11 154 -11 208 0 71 -3 97 -12 96 -7 -1
-62 -12 -123 -26z m-117 -569 c33 -23 27 -50 -20 -97 -71 -70 -207 -126 -348
-142 l-55 -6 58 25 c81 34 131 71 191 140 45 51 109 95 141 96 6 0 21 -7 33
-16z"/>
<path d="M2855 4994 c-16 -2 -66 -9 -111 -15 -92 -12 -110 -20 -100 -44 6 -18
7 -18 89 3 29 8 41 7 52 -5 8 -8 15 -18 15 -22 0 -41 66 -356 86 -413 63 -177
156 -314 290 -429 124 -107 195 -154 320 -215 245 -120 524 -152 769 -89 176
45 300 117 523 304 l132 111 33 -53 c18 -28 47 -74 63 -102 34 -59 44 -41 19
34 -53 161 -202 317 -485 506 -306 206 -642 341 -1001 405 -104 19 -168 23
-394 25 -148 2 -283 1 -300 -1z m500 -466 c17 -11 66 -70 110 -130 141 -194
232 -296 350 -391 28 -22 41 -37 30 -34 -11 3 -55 15 -98 27 -236 65 -399 168
-502 319 -74 108 -74 195 -2 227 37 16 70 11 112 -18z"/>
<path d="M7316 4865 c-109 -24 -249 -60 -310 -79 -334 -105 -610 -320 -820
-640 -32 -48 -55 -90 -52 -94 4 -3 23 10 43 30 l36 36 118 -88 c195 -145 296
-184 484 -183 129 0 214 18 322 68 204 94 359 268 402 449 16 65 4 546 -13
545 -6 0 -101 -20 -210 -44z m-25 -554 c24 -19 24 -20 5 -54 -42 -79 -214
-163 -371 -181 l-50 -6 73 36 c55 27 92 55 155 120 73 74 111 100 153 103 7 1
22 -8 35 -18z"/>
<path d="M5498 3897 c-41 -24 -81 -73 -105 -127 -16 -36 -24 -153 -11 -165 11
-11 73 32 103 71 40 52 65 126 65 189 0 30 -3 55 -7 55 -5 0 -25 -10 -45 -23z"/>
<path d="M5792 3852 c4 -50 13 -83 34 -122 28 -52 96 -120 120 -120 35 0 25
120 -16 200 -24 46 -94 110 -121 110 -21 0 -21 -4 -17 -68z"/>
<path d="M3100 3772 c0 -10 148 -102 228 -142 97 -48 257 -98 372 -116 148
-23 412 -15 563 19 107 23 107 23 101 3 -3 -12 -18 -39 -32 -61 -49 -73 -292
-178 -589 -255 -32 -8 -43 -16 -43 -30 0 -26 17 -26 148 4 381 86 654 243 706
404 20 64 31 142 19 142 -26 0 -131 -44 -250 -104 -161 -82 -227 -97 -413 -97
-225 -1 -385 41 -653 170 -157 75 -157 75 -157 63z"/>
<path d="M6383 3733 c-7 -2 -13 -11 -13 -19 0 -20 170 -213 229 -259 60 -47
151 -98 160 -89 3 3 -38 47 -91 97 -88 82 -135 147 -108 147 5 0 56 -19 112
-42 83 -34 118 -43 181 -46 42 -2 77 0 77 4 0 5 -35 23 -77 41 -43 18 -148 61
-233 96 -152 62 -212 80 -237 70z"/>
<path d="M4925 3579 c-169 -90 -362 -285 -460 -462 -54 -98 -40 -115 20 -26
135 199 290 363 429 455 86 57 80 53 74 59 -3 3 -31 -9 -63 -26z"/>
<path d="M6242 3469 c6 -34 184 -479 191 -479 27 -1 -40 236 -98 349 -44 85
-98 161 -93 130z"/>
<path d="M5072 3169 c-47 -9 -135 -47 -167 -73 -19 -15 -19 -15 12 -16 17 0
55 11 85 25 67 31 159 33 276 5 120 -29 238 -39 482 -42 185 -3 226 0 295 16
84 21 98 19 190 -20 19 -8 19 -7 4 16 -21 33 -75 60 -121 60 -20 0 -81 -9
-135 -19 -89 -18 -120 -19 -338 -11 -219 8 -251 12 -360 39 -124 32 -151 35
-223 20z"/>
<path d="M5036 2883 c-8 -21 70 -103 133 -141 59 -35 206 -51 521 -58 l245 -6
35 24 c19 13 36 34 38 46 4 25 -10 26 -173 13 -96 -8 -330 1 -510 20 -117 12
-151 24 -229 83 -25 20 -48 36 -50 36 -2 0 -7 -8 -10 -17z"/>
</g>
</svg>
